<svg width="145" height="55" viewBox="0 0 145 55" fill="none" xmlns="http://www.w3.org/2000/svg">
<ellipse cx="25" cy="25.5" rx="21" ry="20.5" fill="white"/>
<g filter="url(#filter0_d_608_3146)">
<path d="M6 7L44 46" stroke="black" stroke-width="2" stroke-linecap="round"/>
</g>
<path d="M66.7695 25.7266L71.2578 29.2891L69.3477 30.9648L64.9414 27.4375L66.7695 25.7266ZM71.293 19V19.9375C71.293 21.2266 71.125 22.3828 70.7891 23.4062C70.4531 24.4297 69.9727 25.3008 69.3477 26.0195C68.7227 26.7383 67.9766 27.2891 67.1094 27.6719C66.2422 28.0469 65.2812 28.2344 64.2266 28.2344C63.1797 28.2344 62.2227 28.0469 61.3555 27.6719C60.4961 27.2891 59.75 26.7383 59.1172 26.0195C58.4844 25.3008 57.9922 24.4297 57.6406 23.4062C57.2969 22.3828 57.125 21.2266 57.125 19.9375V19C57.125 17.7109 57.2969 16.5586 57.6406 15.543C57.9844 14.5195 58.4688 13.6484 59.0938 12.9297C59.7266 12.2031 60.4727 11.6523 61.332 11.2773C62.1992 10.8945 63.1562 10.7031 64.2031 10.7031C65.2578 10.7031 66.2188 10.8945 67.0859 11.2773C67.9609 11.6523 68.7109 12.2031 69.3359 12.9297C69.9609 13.6484 70.4414 14.5195 70.7773 15.543C71.1211 16.5586 71.293 17.7109 71.293 19ZM68.3398 19.9375V18.9766C68.3398 18.0234 68.2461 17.1836 68.0586 16.457C67.8789 15.7227 67.6094 15.1094 67.25 14.6172C66.8984 14.1172 66.4648 13.7422 65.9492 13.4922C65.4414 13.2344 64.8594 13.1055 64.2031 13.1055C63.5625 13.1055 62.9883 13.2344 62.4805 13.4922C61.9727 13.7422 61.5391 14.1172 61.1797 14.6172C60.8203 15.1094 60.5469 15.7227 60.3594 16.457C60.1719 17.1836 60.0781 18.0234 60.0781 18.9766V19.9375C60.0781 20.8906 60.1719 21.7344 60.3594 22.4688C60.5469 23.2031 60.8203 23.8242 61.1797 24.332C61.5469 24.832 61.9844 25.2109 62.4922 25.4688C63.0078 25.7188 63.5859 25.8438 64.2266 25.8438C64.8828 25.8438 65.4648 25.7188 65.9727 25.4688C66.4805 25.2109 66.9102 24.832 67.2617 24.332C67.6133 23.8242 67.8789 23.2031 68.0586 22.4688C68.2461 21.7344 68.3398 20.8906 68.3398 19.9375ZM83.3258 13.2109L78.2281 28H75.1461L81.568 10.9375H83.5367L83.3258 13.2109ZM87.5914 28L82.482 13.2109L82.2594 10.9375H84.2398L90.6852 28H87.5914ZM87.3453 21.6719V24.0039H78.0641V21.6719H87.3453ZM94.9953 10.9375H101.03C102.327 10.9375 103.433 11.1328 104.347 11.5234C105.261 11.9141 105.96 12.4922 106.445 13.2578C106.937 14.0156 107.183 14.9531 107.183 16.0703C107.183 16.9219 107.027 17.6719 106.714 18.3203C106.402 18.9688 105.96 19.5156 105.39 19.9609C104.82 20.3984 104.14 20.7383 103.351 20.9805L102.46 21.4141H97.0344L97.0109 19.082H101.077C101.78 19.082 102.366 18.957 102.835 18.707C103.304 18.457 103.655 18.1172 103.89 17.6875C104.132 17.25 104.253 16.7578 104.253 16.2109C104.253 15.6172 104.136 15.1016 103.902 14.6641C103.675 14.2188 103.323 13.8789 102.847 13.6445C102.37 13.4023 101.765 13.2812 101.03 13.2812H97.9367V28H94.9953V10.9375ZM104.734 28L100.726 20.3359L103.808 20.3242L107.874 27.8477V28H104.734ZM119.157 13.2109L114.059 28H110.977L117.399 10.9375H119.368L119.157 13.2109ZM123.423 28L118.313 13.2109L118.091 10.9375H120.071L126.516 28H123.423ZM123.177 21.6719V24.0039H113.895V21.6719H123.177Z" fill="white"/>
<path d="M59.4258 38.6328V42H58.4844V37.7734H59.3711L59.4258 38.6328ZM59.2734 39.7305L58.9531 39.7266C58.9531 39.4349 58.9896 39.1654 59.0625 38.918C59.1354 38.6706 59.2422 38.4557 59.3828 38.2734C59.5234 38.0885 59.6979 37.9466 59.9062 37.8477C60.1172 37.7461 60.3607 37.6953 60.6367 37.6953C60.8294 37.6953 61.0052 37.724 61.1641 37.7812C61.3255 37.8359 61.4648 37.9232 61.582 38.043C61.7018 38.1628 61.793 38.3164 61.8555 38.5039C61.9206 38.6914 61.9531 38.918 61.9531 39.1836V42H61.0117V39.2656C61.0117 39.0599 60.9805 38.8984 60.918 38.7812C60.8581 38.6641 60.7708 38.5807 60.6562 38.5312C60.5443 38.4792 60.4102 38.4531 60.2539 38.4531C60.0768 38.4531 59.9258 38.487 59.8008 38.5547C59.6784 38.6224 59.5781 38.7148 59.5 38.832C59.4219 38.9492 59.3646 39.0846 59.3281 39.2383C59.2917 39.3919 59.2734 39.556 59.2734 39.7305ZM61.8945 39.4805L61.4531 39.5781C61.4531 39.3229 61.4883 39.082 61.5586 38.8555C61.6315 38.6263 61.737 38.4258 61.875 38.2539C62.0156 38.0794 62.1888 37.9427 62.3945 37.8438C62.6003 37.7448 62.8359 37.6953 63.1016 37.6953C63.3177 37.6953 63.5104 37.7253 63.6797 37.7852C63.8516 37.8424 63.9974 37.9336 64.1172 38.0586C64.237 38.1836 64.3281 38.3464 64.3906 38.5469C64.4531 38.7448 64.4844 38.9844 64.4844 39.2656V42H63.5391V39.2617C63.5391 39.0482 63.5078 38.8828 63.4453 38.7656C63.3854 38.6484 63.2995 38.5677 63.1875 38.5234C63.0755 38.4766 62.9414 38.4531 62.7852 38.4531C62.6393 38.4531 62.5104 38.4805 62.3984 38.5352C62.2891 38.5872 62.1966 38.6615 62.1211 38.7578C62.0456 38.8516 61.9883 38.9596 61.9492 39.082C61.9128 39.2044 61.8945 39.3372 61.8945 39.4805ZM67.2734 39.9336V39.8438C67.2734 39.5391 67.3177 39.2565 67.4062 38.9961C67.4948 38.7331 67.6224 38.5052 67.7891 38.3125C67.9583 38.1172 68.1641 37.9661 68.4062 37.8594C68.651 37.75 68.9271 37.6953 69.2344 37.6953C69.5443 37.6953 69.8203 37.75 70.0625 37.8594C70.3073 37.9661 70.5143 38.1172 70.6836 38.3125C70.8529 38.5052 70.9818 38.7331 71.0703 38.9961C71.1589 39.2565 71.2031 39.5391 71.2031 39.8438V39.9336C71.2031 40.2383 71.1589 40.5208 71.0703 40.7812C70.9818 41.0417 70.8529 41.2695 70.6836 41.4648C70.5143 41.6576 70.3086 41.8086 70.0664 41.918C69.8242 42.0247 69.5495 42.0781 69.2422 42.0781C68.9323 42.0781 68.6549 42.0247 68.4102 41.918C68.168 41.8086 67.9622 41.6576 67.793 41.4648C67.6237 41.2695 67.4948 41.0417 67.4062 40.7812C67.3177 40.5208 67.2734 40.2383 67.2734 39.9336ZM68.2148 39.8438V39.9336C68.2148 40.1237 68.2344 40.3034 68.2734 40.4727C68.3125 40.6419 68.3737 40.7904 68.457 40.918C68.5404 41.0456 68.6471 41.1458 68.7773 41.2188C68.9076 41.2917 69.0625 41.3281 69.2422 41.3281C69.4167 41.3281 69.5677 41.2917 69.6953 41.2188C69.8255 41.1458 69.9323 41.0456 70.0156 40.918C70.099 40.7904 70.1602 40.6419 70.1992 40.4727C70.2409 40.3034 70.2617 40.1237 70.2617 39.9336V39.8438C70.2617 39.6562 70.2409 39.4792 70.1992 39.3125C70.1602 39.1432 70.0977 38.9935 70.0117 38.8633C69.9284 38.7331 69.8216 38.6315 69.6914 38.5586C69.5638 38.4831 69.4115 38.4453 69.2344 38.4453C69.0573 38.4453 68.9036 38.4831 68.7734 38.5586C68.6458 38.6315 68.5404 38.7331 68.457 38.8633C68.3737 38.9935 68.3125 39.1432 68.2734 39.3125C68.2344 39.4792 68.2148 39.6562 68.2148 39.8438ZM75.3047 41.2539L76.3398 37.7734H77.3164L75.8477 42H75.2383L75.3047 41.2539ZM74.5117 37.7734L75.5664 41.2695L75.6172 42H75.0078L73.5312 37.7734H74.5117ZM80.9062 37.7734V42H79.9609V37.7734H80.9062ZM79.8984 36.6641C79.8984 36.5208 79.9453 36.4023 80.0391 36.3086C80.1354 36.2122 80.2682 36.1641 80.4375 36.1641C80.6042 36.1641 80.7357 36.2122 80.832 36.3086C80.9284 36.4023 80.9766 36.5208 80.9766 36.6641C80.9766 36.8047 80.9284 36.9219 80.832 37.0156C80.7357 37.1094 80.6042 37.1562 80.4375 37.1562C80.2682 37.1562 80.1354 37.1094 80.0391 37.0156C79.9453 36.9219 79.8984 36.8047 79.8984 36.6641ZM85.8008 42.0781C85.4883 42.0781 85.2057 42.0273 84.9531 41.9258C84.7031 41.8216 84.4896 41.6771 84.3125 41.4922C84.138 41.3073 84.0039 41.0898 83.9102 40.8398C83.8164 40.5898 83.7695 40.3203 83.7695 40.0312V39.875C83.7695 39.5443 83.8177 39.2448 83.9141 38.9766C84.0104 38.7083 84.1445 38.4792 84.3164 38.2891C84.4883 38.0964 84.6914 37.9492 84.9258 37.8477C85.1602 37.7461 85.4141 37.6953 85.6875 37.6953C85.9896 37.6953 86.2539 37.7461 86.4805 37.8477C86.707 37.9492 86.8945 38.0924 87.043 38.2773C87.194 38.4596 87.306 38.6771 87.3789 38.9297C87.4544 39.1823 87.4922 39.4609 87.4922 39.7656V40.168H84.2266V39.4922H86.5625V39.418C86.5573 39.2487 86.5234 39.0898 86.4609 38.9414C86.401 38.793 86.3086 38.6732 86.1836 38.582C86.0586 38.4909 85.8919 38.4453 85.6836 38.4453C85.5273 38.4453 85.388 38.4792 85.2656 38.5469C85.1458 38.612 85.0456 38.707 84.9648 38.832C84.8841 38.957 84.8216 39.1081 84.7773 39.2852C84.7357 39.4596 84.7148 39.6562 84.7148 39.875V40.0312C84.7148 40.2161 84.7396 40.388 84.7891 40.5469C84.8411 40.7031 84.9167 40.8398 85.0156 40.957C85.1146 41.0742 85.2344 41.1667 85.375 41.2344C85.5156 41.2995 85.6758 41.332 85.8555 41.332C86.082 41.332 86.2839 41.2865 86.4609 41.1953C86.638 41.1042 86.7917 40.9753 86.9219 40.8086L87.418 41.2891C87.3268 41.4219 87.2083 41.5495 87.0625 41.6719C86.9167 41.7917 86.7383 41.8893 86.5273 41.9648C86.319 42.0404 86.0768 42.0781 85.8008 42.0781ZM95.9453 41.3281C96.099 41.3281 96.237 41.2982 96.3594 41.2383C96.4844 41.1758 96.5846 41.0898 96.6602 40.9805C96.7383 40.8711 96.7812 40.7448 96.7891 40.6016H97.6758C97.6706 40.875 97.5898 41.1237 97.4336 41.3477C97.2773 41.5716 97.0703 41.75 96.8125 41.8828C96.5547 42.013 96.2695 42.0781 95.957 42.0781C95.6341 42.0781 95.3529 42.0234 95.1133 41.9141C94.8737 41.8021 94.6745 41.6484 94.5156 41.4531C94.3568 41.2578 94.237 41.0326 94.1562 40.7773C94.0781 40.5221 94.0391 40.2487 94.0391 39.957V39.8203C94.0391 39.5286 94.0781 39.2552 94.1562 39C94.237 38.7422 94.3568 38.5156 94.5156 38.3203C94.6745 38.125 94.8737 37.9727 95.1133 37.8633C95.3529 37.7513 95.6328 37.6953 95.9531 37.6953C96.2917 37.6953 96.5885 37.763 96.8438 37.8984C97.099 38.0312 97.2995 38.2174 97.4453 38.457C97.5938 38.694 97.6706 38.9701 97.6758 39.2852H96.7891C96.7812 39.1289 96.7422 38.9883 96.6719 38.8633C96.6042 38.7357 96.5078 38.6341 96.3828 38.5586C96.2604 38.4831 96.1133 38.4453 95.9414 38.4453C95.7513 38.4453 95.5938 38.4844 95.4688 38.5625C95.3438 38.638 95.2461 38.7422 95.1758 38.875C95.1055 39.0052 95.0547 39.1523 95.0234 39.3164C94.9948 39.4779 94.9805 39.6458 94.9805 39.8203V39.957C94.9805 40.1315 94.9948 40.3008 95.0234 40.4648C95.0521 40.6289 95.1016 40.776 95.1719 40.9062C95.2448 41.0339 95.3438 41.1367 95.4688 41.2148C95.5938 41.2904 95.7526 41.3281 95.9453 41.3281ZM102.262 42.0781C101.949 42.0781 101.667 42.0273 101.414 41.9258C101.164 41.8216 100.951 41.6771 100.773 41.4922C100.599 41.3073 100.465 41.0898 100.371 40.8398C100.277 40.5898 100.23 40.3203 100.23 40.0312V39.875C100.23 39.5443 100.279 39.2448 100.375 38.9766C100.471 38.7083 100.605 38.4792 100.777 38.2891C100.949 38.0964 101.152 37.9492 101.387 37.8477C101.621 37.7461 101.875 37.6953 102.148 37.6953C102.451 37.6953 102.715 37.7461 102.941 37.8477C103.168 37.9492 103.355 38.0924 103.504 38.2773C103.655 38.4596 103.767 38.6771 103.84 38.9297C103.915 39.1823 103.953 39.4609 103.953 39.7656V40.168H100.688V39.4922H103.023V39.418C103.018 39.2487 102.984 39.0898 102.922 38.9414C102.862 38.793 102.77 38.6732 102.645 38.582C102.52 38.4909 102.353 38.4453 102.145 38.4453C101.988 38.4453 101.849 38.4792 101.727 38.5469C101.607 38.612 101.507 38.707 101.426 38.832C101.345 38.957 101.283 39.1081 101.238 39.2852C101.197 39.4596 101.176 39.6562 101.176 39.875V40.0312C101.176 40.2161 101.201 40.388 101.25 40.5469C101.302 40.7031 101.378 40.8398 101.477 40.957C101.576 41.0742 101.695 41.1667 101.836 41.2344C101.977 41.2995 102.137 41.332 102.316 41.332C102.543 41.332 102.745 41.2865 102.922 41.1953C103.099 41.1042 103.253 40.9753 103.383 40.8086L103.879 41.2891C103.788 41.4219 103.669 41.5495 103.523 41.6719C103.378 41.7917 103.199 41.8893 102.988 41.9648C102.78 42.0404 102.538 42.0781 102.262 42.0781ZM107.621 38.6758V42H106.68V37.7734H107.566L107.621 38.6758ZM107.453 39.7305L107.148 39.7266C107.151 39.4271 107.193 39.1523 107.273 38.9023C107.357 38.6523 107.471 38.4375 107.617 38.2578C107.766 38.0781 107.943 37.9401 108.148 37.8438C108.354 37.7448 108.583 37.6953 108.836 37.6953C109.039 37.6953 109.223 37.724 109.387 37.7812C109.553 37.8359 109.695 37.9258 109.812 38.0508C109.932 38.1758 110.023 38.3385 110.086 38.5391C110.148 38.737 110.18 38.9805 110.18 39.2695V42H109.234V39.2656C109.234 39.0625 109.204 38.9023 109.145 38.7852C109.087 38.6654 109.003 38.5807 108.891 38.5312C108.781 38.4792 108.645 38.4531 108.48 38.4531C108.319 38.4531 108.174 38.487 108.047 38.5547C107.919 38.6224 107.811 38.7148 107.723 38.832C107.637 38.9492 107.57 39.0846 107.523 39.2383C107.477 39.3919 107.453 39.556 107.453 39.7305ZM115.078 37.7734V38.4609H112.695V37.7734H115.078ZM113.383 36.7383H114.324V40.832C114.324 40.9622 114.342 41.0625 114.379 41.1328C114.418 41.2005 114.471 41.2461 114.539 41.2695C114.607 41.293 114.686 41.3047 114.777 41.3047C114.842 41.3047 114.905 41.3008 114.965 41.293C115.025 41.2852 115.073 41.2773 115.109 41.2695L115.113 41.9883C115.035 42.0117 114.944 42.0326 114.84 42.0508C114.738 42.069 114.621 42.0781 114.488 42.0781C114.272 42.0781 114.081 42.0404 113.914 41.9648C113.747 41.8867 113.617 41.7604 113.523 41.5859C113.43 41.4115 113.383 41.1797 113.383 40.8906V36.7383ZM119.668 42.0781C119.355 42.0781 119.073 42.0273 118.82 41.9258C118.57 41.8216 118.357 41.6771 118.18 41.4922C118.005 41.3073 117.871 41.0898 117.777 40.8398C117.684 40.5898 117.637 40.3203 117.637 40.0312V39.875C117.637 39.5443 117.685 39.2448 117.781 38.9766C117.878 38.7083 118.012 38.4792 118.184 38.2891C118.355 38.0964 118.559 37.9492 118.793 37.8477C119.027 37.7461 119.281 37.6953 119.555 37.6953C119.857 37.6953 120.121 37.7461 120.348 37.8477C120.574 37.9492 120.762 38.0924 120.91 38.2773C121.061 38.4596 121.173 38.6771 121.246 38.9297C121.322 39.1823 121.359 39.4609 121.359 39.7656V40.168H118.094V39.4922H120.43V39.418C120.424 39.2487 120.391 39.0898 120.328 38.9414C120.268 38.793 120.176 38.6732 120.051 38.582C119.926 38.4909 119.759 38.4453 119.551 38.4453C119.395 38.4453 119.255 38.4792 119.133 38.5469C119.013 38.612 118.913 38.707 118.832 38.832C118.751 38.957 118.689 39.1081 118.645 39.2852C118.603 39.4596 118.582 39.6562 118.582 39.875V40.0312C118.582 40.2161 118.607 40.388 118.656 40.5469C118.708 40.7031 118.784 40.8398 118.883 40.957C118.982 41.0742 119.102 41.1667 119.242 41.2344C119.383 41.2995 119.543 41.332 119.723 41.332C119.949 41.332 120.151 41.2865 120.328 41.1953C120.505 41.1042 120.659 40.9753 120.789 40.8086L121.285 41.2891C121.194 41.4219 121.076 41.5495 120.93 41.6719C120.784 41.7917 120.605 41.8893 120.395 41.9648C120.186 42.0404 119.944 42.0781 119.668 42.0781ZM125.039 38.5781V42H124.098V37.7734H124.996L125.039 38.5781ZM126.332 37.7461L126.324 38.6211C126.267 38.6107 126.204 38.6029 126.137 38.5977C126.072 38.5924 126.007 38.5898 125.941 38.5898C125.78 38.5898 125.638 38.6133 125.516 38.6602C125.393 38.7044 125.29 38.7695 125.207 38.8555C125.126 38.9388 125.064 39.0404 125.02 39.1602C124.975 39.2799 124.949 39.4141 124.941 39.5625L124.727 39.5781C124.727 39.3125 124.753 39.0664 124.805 38.8398C124.857 38.6133 124.935 38.4141 125.039 38.2422C125.146 38.0703 125.279 37.9362 125.438 37.8398C125.599 37.7435 125.785 37.6953 125.996 37.6953C126.053 37.6953 126.115 37.7005 126.18 37.7109C126.247 37.7214 126.298 37.7331 126.332 37.7461Z" fill="white"/>
<defs>
<filter id="filter0_d_608_3146" x="1" y="6" width="48" height="49" filterUnits="userSpaceOnUse" color-interpolation-filters="sRGB">
<feFlood flood-opacity="0" result="BackgroundImageFix"/>
<feColorMatrix in="SourceAlpha" type="matrix" values="0 0 0 0 0 0 0 0 0 0 0 0 0 0 0 0 0 0 127 0" result="hardAlpha"/>
<feOffset dy="4"/>
<feGaussianBlur stdDeviation="2"/>
<feComposite in2="hardAlpha" operator="out"/>
<feColorMatrix type="matrix" values="0 0 0 0 0 0 0 0 0 0 0 0 0 0 0 0 0 0 0.25 0"/>
<feBlend mode="normal" in2="BackgroundImageFix" result="effect1_dropShadow_608_3146"/>
<feBlend mode="normal" in="SourceGraphic" in2="effect1_dropShadow_608_3146" result="shape"/>
</filter>
</defs>
</svg>
